<svg width="192" height="185" viewBox="0 0 192 185" fill="none" xmlns="http://www.w3.org/2000/svg">
<path d="M2.23242 97.089C2.23227 79.9137 13.0381 55.6792 30.5876 35.8329C48.1161 16.0102 72.0585 0.918663 98.0242 1.51723C122.779 2.08788 145.903 15.3173 162.875 33.8377C179.857 52.3682 190.5 75.9987 190.5 97.089V97.3416V97.5943V97.8469V98.0996V98.3524V98.6051V98.8579V99.1107V99.3635V99.6163V99.8692V100.122V100.375V100.628V100.881V101.134V101.386V101.639V101.892V102.145V102.398V102.651V102.904V103.156V103.409V103.662V103.915V104.168V104.42V104.673V104.926V105.178V105.431V105.684V105.936V106.189V106.441V106.694V106.946V107.198V107.451V107.703V107.955V108.207V108.46V108.712V108.964V109.215V109.467V109.719V109.971V110.222V110.474V110.726V110.977V111.228V111.48V111.731V111.982V112.233V112.484V112.735V112.985V113.236V113.486V113.737V113.987V114.237V114.488V114.738V114.988V115.237V115.487V115.737V115.986V116.235V116.485V116.734V116.983V117.232V117.48V117.729V117.977V118.226V118.474V118.722V118.97V119.217V119.465V119.712V119.96V120.207V120.454V120.701V120.947V121.194V121.44V121.686V121.932V122.178V122.424V122.669V122.915V123.16V123.405V123.649V123.894V124.138V124.383V124.627V124.871V125.114V125.358V125.601V125.844V126.087V126.329V126.572V126.814V127.056V127.298V127.539V127.781V128.022V128.263V128.504V128.744V128.984V129.224V129.464V129.704V129.943V130.182V130.421V130.66V130.898V131.136V131.374V131.612V131.849V132.086V132.323V132.559V132.796V133.032V133.268V133.503V133.738V133.973V134.208V134.443V134.677V134.911V135.144V135.378V135.611V135.844V136.076V136.308V136.54V136.772V137.003V137.234V137.465V137.695V137.925V138.155V138.384V138.614V138.842V139.071V139.299V139.527V139.755V139.982V140.209V140.435V140.662V140.888V141.113V141.338V141.563V141.788V142.012V142.236V142.46V142.683V142.906V143.128V143.35V143.572V143.793V144.014V144.235V144.456V144.675V144.895V145.114V145.333V145.552V145.77V145.987V146.205V146.422V146.638V146.854V147.07V147.286V147.501V147.715V147.929V148.143V148.357V148.57V148.782V148.994V149.206V149.417V149.628V149.839V150.049V150.259V150.468V150.677V150.885V151.093V151.301V151.508V151.714V151.921V152.127V152.332V152.537V152.741V152.945V153.149V153.352V153.555V153.757V153.959V154.16V154.361V154.561V154.761V154.96V155.159V155.358V155.556V155.753V155.95V156.147V156.343V156.539V156.734V156.928V157.123V157.316V157.509V157.702V157.894V158.086V158.277V158.468V158.658V158.847V159.036V159.225V159.413V159.601V159.788V159.974V160.16V160.346V160.531V160.715V160.899V161.082V161.265V161.447V161.629V161.81V161.991V162.171V162.35V162.529V162.708V162.886V163.063V163.24V163.416V163.592V163.767V163.941V164.115V164.289V164.461V164.634V164.805V164.976V165.147V165.317V165.486V165.655V165.823V165.99V166.157V166.324V166.489V166.655V166.819V166.983V167.146V167.309V167.471V167.633V167.794V167.954V168.113V168.273V168.431V168.589V168.746V168.902V169.058V169.214V169.368V169.522V169.675V169.828V169.98V170.132V170.282V170.432V170.582V170.731V170.879V171.026V171.173V171.319V171.465V171.61V171.754V171.897V172.04V172.182V172.324V172.465V172.605V172.744V172.883V173.021V173.158V173.295V173.431V173.566V173.701V173.835V173.968V174.1V174.232V174.363V174.494V174.623V174.752V174.88V175.008V175.135V175.261V175.386V175.511V175.635V175.758V175.88V176.002V176.123V176.243V176.362V176.481V176.599V176.716V176.833V176.949V177.064V177.178V177.291V177.404V177.516V177.627V177.738V177.847V177.956V178.064V178.171V178.278V178.384V178.489V178.593V178.696V178.799V178.901V179.002V179.102V179.202V179.3V179.398V179.495V179.592V179.687V179.782V179.876V179.969V180.061V180.152V180.243V180.333V180.422V180.51V180.597V180.684V180.769V180.854V180.938V181.021V181.104V181.185V181.266V181.345V181.424V181.503V181.58V181.656V181.732V181.806V181.88V181.953V182.025V182.097V182.167V182.236V182.305V182.373V182.44V182.506V182.571V182.635V182.698V182.761V182.822V182.883V182.943V183.002V183.06V183.117V183.173V183.229V183.283V183.324H2.23243L2.23244 182.504L2.23247 176.086L2.23254 154.211C2.23258 136.696 2.23258 114.762 2.23242 97.089Z" stroke="#F78716" stroke-width="3"/>
</svg>
